<?xml version="1.0" standalone="no"?><!DOCTYPE svg PUBLIC "-//W3C//DTD SVG 1.1//EN" "http://www.w3.org/Graphics/SVG/1.1/DTD/svg11.dtd"><svg t="1664177053433" class="icon" viewBox="0 0 1024 1024" version="1.1" xmlns="http://www.w3.org/2000/svg" p-id="9434" xmlns:xlink="http://www.w3.org/1999/xlink" width="200" height="200"><path d="M371.872 534.336A256 256 0 1 1 767.84 320a256 256 0 0 1-255.936 256C299.872 576 128 747.936 128 960H64c0-198.528 129.088-366.88 307.872-425.664zM511.904 512a192 192 0 0 0 191.968-192 192 192 0 1 0-191.968 192zM960 742.144c0 20.768-4.16 40.896-12.48 60.416-8.864 20.928-20.992 37.344-36.384 49.28-17.696 13.76-36.384 20.608-56.032 20.608a48.96 48.96 0 0 1-29.472-9.248c-3.52-2.624-7.52-7.296-11.968-13.984-16.288 16-35.392 24-57.344 24a81.216 81.216 0 0 1-58.688-23.712c-19.296-18.816-28.96-43.776-28.96-74.912 0-34.976 12.32-62.336 36.928-82.016 17.344-13.888 37.888-20.832 61.6-20.832 15.584 0 31.968 5.184 49.12 15.552l3.2-11.328h50.176l-14.592 118.944a198.016 198.016 0 0 0-1.344 24c0 6.848 2.048 10.272 6.112 10.272 3.2 0 6.72-0.8 10.624-2.368 13.824-5.632 24.896-16.96 33.216-34.016 7.232-14.944 10.88-30.592 10.88-46.944 0-32.544-10.464-60.16-31.36-82.816-26.88-29.184-63.264-43.776-109.12-43.776-36.8 0-69.056 11.68-96.64 35.072-34.368 28.992-51.52 66.816-51.52 113.408 0 50.464 19.712 89.92 59.2 118.4 25.12 18.112 56.736 27.2 94.784 27.2 31.52 0 59.936-5.568 85.248-16.64l17.536-7.648 7.968-3.968c0.704-0.32 1.92-0.864 3.712-1.6l17.28 43.52-2.944 1.344a107.776 107.776 0 0 0-3.968 2.112l-2.656 1.312-12.736 5.792C856.608 952.512 820.416 960 780.736 960c-49.92 0-91.872-12.16-125.856-36.384a184.416 184.416 0 0 1-58.048-68.064A192.128 192.128 0 0 1 576 768c0-50.464 16.64-93.44 49.92-128.96C665.216 597.024 714.976 576 775.168 576c58.08 0 105.28 19.264 141.536 57.76C945.6 664.32 960 700.48 960 742.144zM811.008 763.52c0-12.48-4.224-22.496-12.736-30.08-8.512-7.552-19.104-11.328-31.872-11.328-10.432 0-19.84 3.84-28.16 11.616-10.784 10.176-16.192 24.704-16.192 43.52 0 12.128 2.944 22.4 8.768 30.848 6.72 9.824 15.84 14.752 27.36 14.752 14.88 0 27.52-6.336 37.984-18.976 9.92-11.776 14.848-25.248 14.848-40.352z" fill="#333333" p-id="9435"></path></svg>